<mxfile host="app.diagrams.net" modified="2024-03-17T11:32:19.082Z" agent="Mozilla/5.0 (Windows NT 10.0; Win64; x64) AppleWebKit/537.36 (KHTML, like Gecko) Chrome/122.0.0.0 Safari/537.36" etag="C5cHtL5HMIhkCXGvW9D2" version="24.0.7" type="device">
  <diagram id="prtHgNgQTEPvFCAcTncT" name="Page-1">
    <mxGraphModel dx="3777" dy="1363" grid="1" gridSize="10" guides="1" tooltips="1" connect="1" arrows="1" fold="1" page="1" pageScale="1" pageWidth="827" pageHeight="1169" math="0" shadow="0">
      <root>
        <mxCell id="0" />
        <mxCell id="1" parent="0" />
        <mxCell id="lB9Hfs0PU4jBC6-gUC3o-2" value="" style="rounded=0;whiteSpace=wrap;html=1;" parent="1" vertex="1">
          <mxGeometry x="160" y="160" width="10" height="800" as="geometry" />
        </mxCell>
        <mxCell id="lB9Hfs0PU4jBC6-gUC3o-3" value="" style="rounded=0;whiteSpace=wrap;html=1;" parent="1" vertex="1">
          <mxGeometry x="400" y="160" width="10" height="800" as="geometry" />
        </mxCell>
        <mxCell id="lB9Hfs0PU4jBC6-gUC3o-4" value="" style="rounded=0;whiteSpace=wrap;html=1;" parent="1" vertex="1">
          <mxGeometry x="640" y="160" width="10" height="800" as="geometry" />
        </mxCell>
        <mxCell id="lB9Hfs0PU4jBC6-gUC3o-5" value="Незарегистрированный&lt;div&gt;пользователь&lt;/div&gt;" style="shape=umlActor;verticalLabelPosition=bottom;verticalAlign=top;html=1;outlineConnect=0;" parent="1" vertex="1">
          <mxGeometry x="150" y="60" width="30" height="60" as="geometry" />
        </mxCell>
        <mxCell id="lB9Hfs0PU4jBC6-gUC3o-11" value="" style="group" parent="1" vertex="1" connectable="0">
          <mxGeometry x="352.5" y="80" width="105" height="40" as="geometry" />
        </mxCell>
        <mxCell id="lB9Hfs0PU4jBC6-gUC3o-8" value="" style="rounded=0;whiteSpace=wrap;html=1;" parent="lB9Hfs0PU4jBC6-gUC3o-11" vertex="1">
          <mxGeometry width="105" height="40" as="geometry" />
        </mxCell>
        <mxCell id="lB9Hfs0PU4jBC6-gUC3o-10" value=":Устройство" style="text;html=1;align=center;verticalAlign=middle;resizable=0;points=[];autosize=1;strokeColor=none;fillColor=none;" parent="lB9Hfs0PU4jBC6-gUC3o-11" vertex="1">
          <mxGeometry x="7.5" y="5" width="90" height="30" as="geometry" />
        </mxCell>
        <mxCell id="lB9Hfs0PU4jBC6-gUC3o-12" value="" style="group" parent="1" vertex="1" connectable="0">
          <mxGeometry x="592.5" y="80" width="105" height="40" as="geometry" />
        </mxCell>
        <mxCell id="lB9Hfs0PU4jBC6-gUC3o-13" value="" style="rounded=0;whiteSpace=wrap;html=1;" parent="lB9Hfs0PU4jBC6-gUC3o-12" vertex="1">
          <mxGeometry width="105" height="40" as="geometry" />
        </mxCell>
        <mxCell id="lB9Hfs0PU4jBC6-gUC3o-14" value=":Сервер" style="text;html=1;align=center;verticalAlign=middle;resizable=0;points=[];autosize=1;strokeColor=none;fillColor=none;" parent="lB9Hfs0PU4jBC6-gUC3o-12" vertex="1">
          <mxGeometry x="17.5" y="5" width="70" height="30" as="geometry" />
        </mxCell>
        <mxCell id="lB9Hfs0PU4jBC6-gUC3o-17" value="" style="endArrow=none;dashed=1;html=1;rounded=0;entryX=0.5;entryY=1;entryDx=0;entryDy=0;exitX=0.5;exitY=0;exitDx=0;exitDy=0;" parent="1" source="lB9Hfs0PU4jBC6-gUC3o-3" target="lB9Hfs0PU4jBC6-gUC3o-8" edge="1">
          <mxGeometry width="50" height="50" relative="1" as="geometry">
            <mxPoint x="470" y="210" as="sourcePoint" />
            <mxPoint x="520" y="160" as="targetPoint" />
          </mxGeometry>
        </mxCell>
        <mxCell id="lB9Hfs0PU4jBC6-gUC3o-18" value="" style="endArrow=none;dashed=1;html=1;rounded=0;entryX=0.5;entryY=1;entryDx=0;entryDy=0;exitX=0.5;exitY=0;exitDx=0;exitDy=0;" parent="1" source="lB9Hfs0PU4jBC6-gUC3o-4" target="lB9Hfs0PU4jBC6-gUC3o-13" edge="1">
          <mxGeometry width="50" height="50" relative="1" as="geometry">
            <mxPoint x="415" y="170" as="sourcePoint" />
            <mxPoint x="415" y="130" as="targetPoint" />
          </mxGeometry>
        </mxCell>
        <mxCell id="lB9Hfs0PU4jBC6-gUC3o-21" value="" style="group" parent="1" vertex="1" connectable="0">
          <mxGeometry x="215" y="180" width="140" height="30" as="geometry" />
        </mxCell>
        <mxCell id="lB9Hfs0PU4jBC6-gUC3o-19" value="" style="endArrow=classic;html=1;rounded=0;exitX=1.029;exitY=0.051;exitDx=0;exitDy=0;exitPerimeter=0;entryX=-0.19;entryY=0.052;entryDx=0;entryDy=0;entryPerimeter=0;" parent="lB9Hfs0PU4jBC6-gUC3o-21" source="lB9Hfs0PU4jBC6-gUC3o-2" target="lB9Hfs0PU4jBC6-gUC3o-3" edge="1">
          <mxGeometry width="50" height="50" relative="1" as="geometry">
            <mxPoint x="-5" y="80" as="sourcePoint" />
            <mxPoint x="45" y="30" as="targetPoint" />
          </mxGeometry>
        </mxCell>
        <mxCell id="lB9Hfs0PU4jBC6-gUC3o-20" value="Открыть приложение" style="text;html=1;align=center;verticalAlign=middle;resizable=0;points=[];autosize=1;strokeColor=none;fillColor=none;" parent="lB9Hfs0PU4jBC6-gUC3o-21" vertex="1">
          <mxGeometry width="140" height="30" as="geometry" />
        </mxCell>
        <mxCell id="lB9Hfs0PU4jBC6-gUC3o-26" value="" style="endArrow=none;html=1;rounded=0;" parent="1" edge="1">
          <mxGeometry width="50" height="50" relative="1" as="geometry">
            <mxPoint x="30" y="270" as="sourcePoint" />
            <mxPoint x="750" y="270" as="targetPoint" />
          </mxGeometry>
        </mxCell>
        <mxCell id="lB9Hfs0PU4jBC6-gUC3o-27" value="&lt;b&gt;Регистрация&lt;/b&gt;" style="text;html=1;align=center;verticalAlign=middle;resizable=0;points=[];autosize=1;strokeColor=none;fillColor=none;" parent="1" vertex="1">
          <mxGeometry x="30" y="280" width="100" height="30" as="geometry" />
        </mxCell>
        <mxCell id="lB9Hfs0PU4jBC6-gUC3o-30" value="" style="group" parent="1" vertex="1" connectable="0">
          <mxGeometry x="215" y="285" width="165" height="40" as="geometry" />
        </mxCell>
        <mxCell id="lB9Hfs0PU4jBC6-gUC3o-28" value="" style="endArrow=classic;html=1;rounded=0;exitX=1.267;exitY=0.202;exitDx=0;exitDy=0;exitPerimeter=0;entryX=-0.267;entryY=0.203;entryDx=0;entryDy=0;entryPerimeter=0;" parent="lB9Hfs0PU4jBC6-gUC3o-30" source="lB9Hfs0PU4jBC6-gUC3o-2" target="lB9Hfs0PU4jBC6-gUC3o-3" edge="1">
          <mxGeometry width="50" height="50" relative="1" as="geometry">
            <mxPoint x="55" y="105" as="sourcePoint" />
            <mxPoint x="105" y="55" as="targetPoint" />
          </mxGeometry>
        </mxCell>
        <mxCell id="lB9Hfs0PU4jBC6-gUC3o-29" value="Открыть страницу&amp;nbsp;&lt;span style=&quot;background-color: initial;&quot;&gt;регистрации&lt;/span&gt;" style="text;html=1;align=center;verticalAlign=middle;resizable=0;points=[];autosize=1;strokeColor=none;fillColor=none;" parent="lB9Hfs0PU4jBC6-gUC3o-30" vertex="1">
          <mxGeometry x="-35" y="5" width="200" height="30" as="geometry" />
        </mxCell>
        <mxCell id="lB9Hfs0PU4jBC6-gUC3o-32" value="" style="group" parent="1" vertex="1" connectable="0">
          <mxGeometry x="215" y="206" width="150" height="40" as="geometry" />
        </mxCell>
        <mxCell id="lB9Hfs0PU4jBC6-gUC3o-22" value="" style="endArrow=classic;html=1;rounded=0;entryX=1.105;entryY=0.101;entryDx=0;entryDy=0;entryPerimeter=0;exitX=-0.229;exitY=0.102;exitDx=0;exitDy=0;exitPerimeter=0;dashed=1;" parent="lB9Hfs0PU4jBC6-gUC3o-32" source="lB9Hfs0PU4jBC6-gUC3o-3" target="lB9Hfs0PU4jBC6-gUC3o-2" edge="1">
          <mxGeometry width="50" height="50" relative="1" as="geometry">
            <mxPoint x="90" y="74" as="sourcePoint" />
            <mxPoint x="140" y="24" as="targetPoint" />
          </mxGeometry>
        </mxCell>
        <mxCell id="lB9Hfs0PU4jBC6-gUC3o-23" value="Отобразить главную&lt;div&gt;страницу приложения&lt;/div&gt;" style="text;html=1;align=center;verticalAlign=middle;resizable=0;points=[];autosize=1;strokeColor=none;fillColor=none;" parent="lB9Hfs0PU4jBC6-gUC3o-32" vertex="1">
          <mxGeometry width="150" height="40" as="geometry" />
        </mxCell>
        <mxCell id="lB9Hfs0PU4jBC6-gUC3o-36" value="" style="group" parent="1" vertex="1" connectable="0">
          <mxGeometry x="215" y="440" width="185" height="40" as="geometry" />
        </mxCell>
        <mxCell id="lB9Hfs0PU4jBC6-gUC3o-33" value="" style="group" parent="lB9Hfs0PU4jBC6-gUC3o-36" vertex="1" connectable="0">
          <mxGeometry width="185" height="40" as="geometry" />
        </mxCell>
        <mxCell id="lB9Hfs0PU4jBC6-gUC3o-35" value="Отобразить страницу регистрации" style="text;html=1;align=center;verticalAlign=middle;resizable=0;points=[];autosize=1;strokeColor=none;fillColor=none;" parent="lB9Hfs0PU4jBC6-gUC3o-33" vertex="1">
          <mxGeometry x="-35" y="5" width="220" height="30" as="geometry" />
        </mxCell>
        <mxCell id="lB9Hfs0PU4jBC6-gUC3o-34" value="" style="endArrow=classic;html=1;rounded=0;entryX=1;entryY=0.25;entryDx=0;entryDy=0;exitX=0;exitY=0.25;exitDx=0;exitDy=0;dashed=1;" parent="1" edge="1">
          <mxGeometry width="50" height="50" relative="1" as="geometry">
            <mxPoint x="400" y="480.0000000000007" as="sourcePoint" />
            <mxPoint x="170.0000000000001" y="480" as="targetPoint" />
          </mxGeometry>
        </mxCell>
        <mxCell id="lB9Hfs0PU4jBC6-gUC3o-37" value="" style="rounded=0;whiteSpace=wrap;html=1;" parent="1" vertex="1">
          <mxGeometry x="405" y="390" width="10" height="40" as="geometry" />
        </mxCell>
        <mxCell id="lB9Hfs0PU4jBC6-gUC3o-38" value="" style="edgeStyle=segmentEdgeStyle;endArrow=classic;html=1;curved=0;rounded=0;endSize=8;startSize=8;sourcePerimeterSpacing=0;targetPerimeterSpacing=0;exitX=1.3;exitY=0.236;exitDx=0;exitDy=0;exitPerimeter=0;entryX=1;entryY=0.5;entryDx=0;entryDy=0;" parent="1" source="lB9Hfs0PU4jBC6-gUC3o-3" target="lB9Hfs0PU4jBC6-gUC3o-37" edge="1">
          <mxGeometry width="100" relative="1" as="geometry">
            <mxPoint x="400" y="340" as="sourcePoint" />
            <mxPoint x="420" y="410" as="targetPoint" />
            <Array as="points">
              <mxPoint x="450" y="349" />
              <mxPoint x="450" y="410" />
            </Array>
          </mxGeometry>
        </mxCell>
        <mxCell id="lB9Hfs0PU4jBC6-gUC3o-39" value="Открыть&amp;nbsp;&lt;div&gt;страницу регистрации&lt;/div&gt;" style="text;html=1;align=center;verticalAlign=middle;resizable=0;points=[];autosize=1;strokeColor=none;fillColor=none;" parent="1" vertex="1">
          <mxGeometry x="442.5" y="360" width="150" height="40" as="geometry" />
        </mxCell>
        <mxCell id="lB9Hfs0PU4jBC6-gUC3o-40" value="" style="endArrow=classic;html=1;rounded=0;exitX=1;exitY=0.5;exitDx=0;exitDy=0;entryX=0;entryY=0.5;entryDx=0;entryDy=0;" parent="1" source="lB9Hfs0PU4jBC6-gUC3o-2" target="lB9Hfs0PU4jBC6-gUC3o-3" edge="1">
          <mxGeometry width="50" height="50" relative="1" as="geometry">
            <mxPoint x="230" y="570" as="sourcePoint" />
            <mxPoint x="280" y="520" as="targetPoint" />
          </mxGeometry>
        </mxCell>
        <mxCell id="lB9Hfs0PU4jBC6-gUC3o-41" value="Ввести персональные данные" style="text;html=1;align=center;verticalAlign=middle;resizable=0;points=[];autosize=1;strokeColor=none;fillColor=none;" parent="1" vertex="1">
          <mxGeometry x="185" y="530" width="190" height="30" as="geometry" />
        </mxCell>
        <mxCell id="lB9Hfs0PU4jBC6-gUC3o-43" value="" style="endArrow=classic;html=1;rounded=0;exitX=1.167;exitY=0.549;exitDx=0;exitDy=0;exitPerimeter=0;entryX=-0.367;entryY=0.549;entryDx=0;entryDy=0;entryPerimeter=0;" parent="1" source="lB9Hfs0PU4jBC6-gUC3o-3" target="lB9Hfs0PU4jBC6-gUC3o-4" edge="1">
          <mxGeometry width="50" height="50" relative="1" as="geometry">
            <mxPoint x="490" y="690" as="sourcePoint" />
            <mxPoint x="540" y="640" as="targetPoint" />
          </mxGeometry>
        </mxCell>
        <mxCell id="lB9Hfs0PU4jBC6-gUC3o-44" value="Передать данные" style="text;html=1;align=center;verticalAlign=middle;resizable=0;points=[];autosize=1;strokeColor=none;fillColor=none;" parent="1" vertex="1">
          <mxGeometry x="455" y="570" width="120" height="30" as="geometry" />
        </mxCell>
        <mxCell id="lB9Hfs0PU4jBC6-gUC3o-45" value="" style="rounded=0;whiteSpace=wrap;html=1;" parent="1" vertex="1">
          <mxGeometry x="645" y="630" width="10" height="40" as="geometry" />
        </mxCell>
        <mxCell id="lB9Hfs0PU4jBC6-gUC3o-46" value="" style="edgeStyle=segmentEdgeStyle;endArrow=classic;html=1;curved=0;rounded=0;endSize=8;startSize=8;sourcePerimeterSpacing=0;targetPerimeterSpacing=0;entryX=1;entryY=0.5;entryDx=0;entryDy=0;exitX=1.033;exitY=0.577;exitDx=0;exitDy=0;exitPerimeter=0;" parent="1" source="lB9Hfs0PU4jBC6-gUC3o-4" edge="1">
          <mxGeometry width="100" relative="1" as="geometry">
            <mxPoint x="655" y="620" as="sourcePoint" />
            <mxPoint x="657" y="661" as="targetPoint" />
            <Array as="points">
              <mxPoint x="650" y="620" />
              <mxPoint x="692" y="620" />
              <mxPoint x="692" y="661" />
            </Array>
          </mxGeometry>
        </mxCell>
        <mxCell id="lB9Hfs0PU4jBC6-gUC3o-47" value="Проверить&amp;nbsp;&lt;div&gt;введённые данные&lt;/div&gt;" style="text;html=1;align=center;verticalAlign=middle;resizable=0;points=[];autosize=1;strokeColor=none;fillColor=none;" parent="1" vertex="1">
          <mxGeometry x="690" y="620" width="130" height="40" as="geometry" />
        </mxCell>
        <mxCell id="lB9Hfs0PU4jBC6-gUC3o-48" value="" style="endArrow=classic;html=1;rounded=0;exitX=-0.367;exitY=0.668;exitDx=0;exitDy=0;exitPerimeter=0;entryX=1.167;entryY=0.669;entryDx=0;entryDy=0;entryPerimeter=0;dashed=1;" parent="1" source="lB9Hfs0PU4jBC6-gUC3o-4" target="lB9Hfs0PU4jBC6-gUC3o-3" edge="1">
          <mxGeometry width="50" height="50" relative="1" as="geometry">
            <mxPoint x="550" y="760" as="sourcePoint" />
            <mxPoint x="600" y="710" as="targetPoint" />
          </mxGeometry>
        </mxCell>
        <mxCell id="lB9Hfs0PU4jBC6-gUC3o-49" value="Вернуть результат проверки данных" style="text;html=1;align=center;verticalAlign=middle;resizable=0;points=[];autosize=1;strokeColor=none;fillColor=none;" parent="1" vertex="1">
          <mxGeometry x="402.5" y="660" width="230" height="30" as="geometry" />
        </mxCell>
        <mxCell id="lB9Hfs0PU4jBC6-gUC3o-50" value="" style="rounded=0;whiteSpace=wrap;html=1;" parent="1" vertex="1">
          <mxGeometry x="405" y="720" width="10" height="40" as="geometry" />
        </mxCell>
        <mxCell id="lB9Hfs0PU4jBC6-gUC3o-52" value="" style="edgeStyle=segmentEdgeStyle;endArrow=classic;html=1;curved=0;rounded=0;endSize=8;startSize=8;sourcePerimeterSpacing=0;targetPerimeterSpacing=0;entryX=1;entryY=0.5;entryDx=0;entryDy=0;exitX=1.033;exitY=0.577;exitDx=0;exitDy=0;exitPerimeter=0;" parent="1" edge="1">
          <mxGeometry width="100" relative="1" as="geometry">
            <mxPoint x="410" y="712" as="sourcePoint" />
            <mxPoint x="417" y="751" as="targetPoint" />
            <Array as="points">
              <mxPoint x="410" y="710" />
              <mxPoint x="452" y="710" />
              <mxPoint x="452" y="751" />
            </Array>
          </mxGeometry>
        </mxCell>
        <mxCell id="lB9Hfs0PU4jBC6-gUC3o-53" value="Подтвердить регистрацию" style="text;html=1;align=center;verticalAlign=middle;resizable=0;points=[];autosize=1;strokeColor=none;fillColor=none;" parent="1" vertex="1">
          <mxGeometry x="442.5" y="718" width="170" height="30" as="geometry" />
        </mxCell>
        <mxCell id="lB9Hfs0PU4jBC6-gUC3o-55" value="" style="endArrow=classic;html=1;rounded=0;exitX=-0.3;exitY=0.8;exitDx=0;exitDy=0;exitPerimeter=0;dashed=1;" parent="1" source="lB9Hfs0PU4jBC6-gUC3o-3" edge="1">
          <mxGeometry width="50" height="50" relative="1" as="geometry">
            <mxPoint x="290" y="850" as="sourcePoint" />
            <mxPoint x="170" y="800" as="targetPoint" />
          </mxGeometry>
        </mxCell>
        <mxCell id="lB9Hfs0PU4jBC6-gUC3o-56" value="" style="group" parent="1" vertex="1" connectable="0">
          <mxGeometry x="205" y="760" width="150" height="40" as="geometry" />
        </mxCell>
        <mxCell id="lB9Hfs0PU4jBC6-gUC3o-58" value="Отобразить главную&lt;div&gt;страницу приложения&lt;/div&gt;" style="text;html=1;align=center;verticalAlign=middle;resizable=0;points=[];autosize=1;strokeColor=none;fillColor=none;" parent="lB9Hfs0PU4jBC6-gUC3o-56" vertex="1">
          <mxGeometry width="150" height="40" as="geometry" />
        </mxCell>
        <mxCell id="lB9Hfs0PU4jBC6-gUC3o-59" value="" style="endArrow=none;html=1;rounded=0;" parent="1" edge="1">
          <mxGeometry width="50" height="50" relative="1" as="geometry">
            <mxPoint x="846" y="360" as="sourcePoint" />
            <mxPoint x="1566" y="360" as="targetPoint" />
          </mxGeometry>
        </mxCell>
        <mxCell id="lB9Hfs0PU4jBC6-gUC3o-60" value="&lt;b&gt;Авторизация&lt;/b&gt;" style="text;html=1;align=center;verticalAlign=middle;resizable=0;points=[];autosize=1;strokeColor=none;fillColor=none;" parent="1" vertex="1">
          <mxGeometry x="846" y="370" width="100" height="30" as="geometry" />
        </mxCell>
        <mxCell id="lB9Hfs0PU4jBC6-gUC3o-62" value="" style="edgeStyle=none;orthogonalLoop=1;jettySize=auto;html=1;rounded=0;exitX=1.176;exitY=0.901;exitDx=0;exitDy=0;exitPerimeter=0;entryX=-0.424;entryY=0.9;entryDx=0;entryDy=0;entryPerimeter=0;" parent="1" edge="1">
          <mxGeometry width="100" relative="1" as="geometry">
            <mxPoint x="987.7600000000002" y="410.8000000000002" as="sourcePoint" />
            <mxPoint x="1211.7600000000002" y="410" as="targetPoint" />
            <Array as="points" />
          </mxGeometry>
        </mxCell>
        <mxCell id="lB9Hfs0PU4jBC6-gUC3o-63" value="Открыть страницу входа" style="text;html=1;align=center;verticalAlign=middle;resizable=0;points=[];autosize=1;strokeColor=none;fillColor=none;" parent="1" vertex="1">
          <mxGeometry x="1011" y="380" width="160" height="30" as="geometry" />
        </mxCell>
        <mxCell id="lB9Hfs0PU4jBC6-gUC3o-65" value="" style="edgeStyle=segmentEdgeStyle;endArrow=classic;html=1;curved=0;rounded=0;endSize=8;startSize=8;sourcePerimeterSpacing=0;targetPerimeterSpacing=0;entryX=1;entryY=0.5;entryDx=0;entryDy=0;exitX=1.033;exitY=0.577;exitDx=0;exitDy=0;exitPerimeter=0;" parent="1" source="lB9Hfs0PU4jBC6-gUC3o-66" edge="1">
          <mxGeometry width="100" relative="1" as="geometry">
            <mxPoint x="1226" y="422" as="sourcePoint" />
            <mxPoint x="1233" y="461" as="targetPoint" />
            <Array as="points">
              <mxPoint x="1226" y="420" />
              <mxPoint x="1268" y="420" />
              <mxPoint x="1268" y="461" />
            </Array>
          </mxGeometry>
        </mxCell>
        <mxCell id="lB9Hfs0PU4jBC6-gUC3o-66" value="" style="whiteSpace=wrap;html=1;" parent="1" vertex="1">
          <mxGeometry x="1216" y="190" width="10" height="720" as="geometry" />
        </mxCell>
        <mxCell id="lB9Hfs0PU4jBC6-gUC3o-64" value="" style="rounded=0;whiteSpace=wrap;html=1;" parent="1" vertex="1">
          <mxGeometry x="1221" y="440" width="10" height="40" as="geometry" />
        </mxCell>
        <mxCell id="lB9Hfs0PU4jBC6-gUC3o-68" value="" style="whiteSpace=wrap;html=1;" parent="1" vertex="1">
          <mxGeometry x="1456" y="190" width="10" height="720" as="geometry" />
        </mxCell>
        <mxCell id="lB9Hfs0PU4jBC6-gUC3o-69" value="" style="whiteSpace=wrap;html=1;" parent="1" vertex="1">
          <mxGeometry x="976" y="190" width="10" height="720" as="geometry" />
        </mxCell>
        <mxCell id="lB9Hfs0PU4jBC6-gUC3o-70" value="" style="endArrow=classic;html=1;rounded=0;exitX=-0.3;exitY=0.8;exitDx=0;exitDy=0;exitPerimeter=0;dashed=1;" parent="1" edge="1">
          <mxGeometry width="50" height="50" relative="1" as="geometry">
            <mxPoint x="1213" y="520" as="sourcePoint" />
            <mxPoint x="986" y="520" as="targetPoint" />
          </mxGeometry>
        </mxCell>
        <mxCell id="lB9Hfs0PU4jBC6-gUC3o-71" value="" style="group" parent="1" vertex="1" connectable="0">
          <mxGeometry x="1021" y="480" width="165" height="40" as="geometry" />
        </mxCell>
        <mxCell id="lB9Hfs0PU4jBC6-gUC3o-72" value="Отобразить страницу входа" style="text;html=1;align=center;verticalAlign=middle;resizable=0;points=[];autosize=1;strokeColor=none;fillColor=none;" parent="lB9Hfs0PU4jBC6-gUC3o-71" vertex="1">
          <mxGeometry x="-15" y="5" width="180" height="30" as="geometry" />
        </mxCell>
        <mxCell id="lB9Hfs0PU4jBC6-gUC3o-73" value="" style="endArrow=classic;html=1;rounded=0;exitX=1;exitY=0.5;exitDx=0;exitDy=0;entryX=0;entryY=0.5;entryDx=0;entryDy=0;" parent="1" edge="1">
          <mxGeometry width="50" height="50" relative="1" as="geometry">
            <mxPoint x="988.5" y="560" as="sourcePoint" />
            <mxPoint x="1216" y="560" as="targetPoint" />
          </mxGeometry>
        </mxCell>
        <mxCell id="lB9Hfs0PU4jBC6-gUC3o-74" value="Ввести персональные данные" style="text;html=1;align=center;verticalAlign=middle;resizable=0;points=[];autosize=1;strokeColor=none;fillColor=none;" parent="1" vertex="1">
          <mxGeometry x="1003.5" y="530" width="190" height="30" as="geometry" />
        </mxCell>
        <mxCell id="lB9Hfs0PU4jBC6-gUC3o-75" value="" style="endArrow=classic;html=1;rounded=0;exitX=1.167;exitY=0.549;exitDx=0;exitDy=0;exitPerimeter=0;entryX=-0.367;entryY=0.549;entryDx=0;entryDy=0;entryPerimeter=0;" parent="1" edge="1">
          <mxGeometry width="50" height="50" relative="1" as="geometry">
            <mxPoint x="1226" y="609" as="sourcePoint" />
            <mxPoint x="1450" y="609" as="targetPoint" />
          </mxGeometry>
        </mxCell>
        <mxCell id="lB9Hfs0PU4jBC6-gUC3o-76" value="Передать данные" style="text;html=1;align=center;verticalAlign=middle;resizable=0;points=[];autosize=1;strokeColor=none;fillColor=none;" parent="1" vertex="1">
          <mxGeometry x="1269" y="580" width="120" height="30" as="geometry" />
        </mxCell>
        <mxCell id="lB9Hfs0PU4jBC6-gUC3o-77" value="Проверить&amp;nbsp;&lt;div&gt;введённые данные&lt;/div&gt;" style="text;html=1;align=center;verticalAlign=middle;resizable=0;points=[];autosize=1;strokeColor=none;fillColor=none;" parent="1" vertex="1">
          <mxGeometry x="1506" y="630" width="130" height="40" as="geometry" />
        </mxCell>
        <mxCell id="lB9Hfs0PU4jBC6-gUC3o-78" value="" style="edgeStyle=segmentEdgeStyle;endArrow=classic;html=1;curved=0;rounded=0;endSize=8;startSize=8;sourcePerimeterSpacing=0;targetPerimeterSpacing=0;entryX=1;entryY=0.5;entryDx=0;entryDy=0;exitX=1.033;exitY=0.577;exitDx=0;exitDy=0;exitPerimeter=0;" parent="1" edge="1">
          <mxGeometry width="100" relative="1" as="geometry">
            <mxPoint x="1466" y="632" as="sourcePoint" />
            <mxPoint x="1473" y="671" as="targetPoint" />
            <Array as="points">
              <mxPoint x="1466" y="630" />
              <mxPoint x="1508" y="630" />
              <mxPoint x="1508" y="671" />
            </Array>
          </mxGeometry>
        </mxCell>
        <mxCell id="lB9Hfs0PU4jBC6-gUC3o-79" value="" style="rounded=0;whiteSpace=wrap;html=1;" parent="1" vertex="1">
          <mxGeometry x="1461" y="640" width="10" height="40" as="geometry" />
        </mxCell>
        <mxCell id="lB9Hfs0PU4jBC6-gUC3o-80" value="Вернуть результат проверки данных" style="text;html=1;align=center;verticalAlign=middle;resizable=0;points=[];autosize=1;strokeColor=none;fillColor=none;" parent="1" vertex="1">
          <mxGeometry x="1218.5" y="690" width="230" height="30" as="geometry" />
        </mxCell>
        <mxCell id="lB9Hfs0PU4jBC6-gUC3o-81" value="" style="endArrow=classic;html=1;rounded=0;exitX=-0.367;exitY=0.668;exitDx=0;exitDy=0;exitPerimeter=0;entryX=1.167;entryY=0.669;entryDx=0;entryDy=0;entryPerimeter=0;dashed=1;" parent="1" edge="1">
          <mxGeometry width="50" height="50" relative="1" as="geometry">
            <mxPoint x="1452" y="724" as="sourcePoint" />
            <mxPoint x="1228" y="725" as="targetPoint" />
          </mxGeometry>
        </mxCell>
        <mxCell id="lB9Hfs0PU4jBC6-gUC3o-82" value="" style="rounded=0;whiteSpace=wrap;html=1;" parent="1" vertex="1">
          <mxGeometry x="1221" y="780" width="10" height="40" as="geometry" />
        </mxCell>
        <mxCell id="lB9Hfs0PU4jBC6-gUC3o-83" value="" style="edgeStyle=segmentEdgeStyle;endArrow=classic;html=1;curved=0;rounded=0;endSize=8;startSize=8;sourcePerimeterSpacing=0;targetPerimeterSpacing=0;entryX=1;entryY=0.5;entryDx=0;entryDy=0;exitX=1.033;exitY=0.577;exitDx=0;exitDy=0;exitPerimeter=0;" parent="1" edge="1">
          <mxGeometry width="100" relative="1" as="geometry">
            <mxPoint x="1226" y="772" as="sourcePoint" />
            <mxPoint x="1233" y="811" as="targetPoint" />
            <Array as="points">
              <mxPoint x="1226" y="770" />
              <mxPoint x="1268" y="770" />
              <mxPoint x="1268" y="811" />
            </Array>
          </mxGeometry>
        </mxCell>
        <mxCell id="lB9Hfs0PU4jBC6-gUC3o-84" value="Открыть главную страницу" style="text;html=1;align=center;verticalAlign=middle;resizable=0;points=[];autosize=1;strokeColor=none;fillColor=none;" parent="1" vertex="1">
          <mxGeometry x="1258.5" y="778" width="170" height="30" as="geometry" />
        </mxCell>
        <mxCell id="lB9Hfs0PU4jBC6-gUC3o-85" value="" style="endArrow=classic;html=1;rounded=0;exitX=-0.367;exitY=0.668;exitDx=0;exitDy=0;exitPerimeter=0;entryX=1.167;entryY=0.669;entryDx=0;entryDy=0;entryPerimeter=0;dashed=1;" parent="1" edge="1">
          <mxGeometry width="50" height="50" relative="1" as="geometry">
            <mxPoint x="1210" y="864" as="sourcePoint" />
            <mxPoint x="986" y="865" as="targetPoint" />
          </mxGeometry>
        </mxCell>
        <mxCell id="lB9Hfs0PU4jBC6-gUC3o-86" value="Отобразить главную&lt;div&gt;страницу приложения&lt;/div&gt;" style="text;html=1;align=center;verticalAlign=middle;resizable=0;points=[];autosize=1;strokeColor=none;fillColor=none;" parent="1" vertex="1">
          <mxGeometry x="1022.5" y="825" width="150" height="40" as="geometry" />
        </mxCell>
        <mxCell id="lB9Hfs0PU4jBC6-gUC3o-175" value="" style="group" parent="1" vertex="1" connectable="0">
          <mxGeometry x="1141" y="580" width="495" height="170" as="geometry" />
        </mxCell>
        <mxCell id="lB9Hfs0PU4jBC6-gUC3o-179" value="" style="group" parent="lB9Hfs0PU4jBC6-gUC3o-175" vertex="1" connectable="0">
          <mxGeometry width="495" height="170" as="geometry" />
        </mxCell>
        <mxCell id="lB9Hfs0PU4jBC6-gUC3o-169" value="" style="rounded=0;whiteSpace=wrap;html=1;fillColor=none;" parent="lB9Hfs0PU4jBC6-gUC3o-179" vertex="1">
          <mxGeometry width="495" height="170" as="geometry" />
        </mxCell>
        <mxCell id="lB9Hfs0PU4jBC6-gUC3o-174" value="loop" style="whiteSpace=wrap;html=1;fillColor=none;" parent="lB9Hfs0PU4jBC6-gUC3o-179" vertex="1">
          <mxGeometry width="70" height="40" as="geometry" />
        </mxCell>
        <mxCell id="lB9Hfs0PU4jBC6-gUC3o-184" value="Открыть страницу входа" style="text;html=1;align=center;verticalAlign=middle;resizable=0;points=[];autosize=1;strokeColor=none;fillColor=none;" parent="1" vertex="1">
          <mxGeometry x="1274" y="430" width="160" height="30" as="geometry" />
        </mxCell>
        <mxCell id="vkENzP75K5TKaXmKiikp-2" value="Неавторизированный&lt;div&gt;пользователь&lt;/div&gt;" style="shape=umlActor;verticalLabelPosition=bottom;verticalAlign=top;html=1;outlineConnect=0;" vertex="1" parent="1">
          <mxGeometry x="963.5" y="90" width="30" height="60" as="geometry" />
        </mxCell>
        <mxCell id="vkENzP75K5TKaXmKiikp-3" value="" style="group" vertex="1" connectable="0" parent="1">
          <mxGeometry x="1166" y="110" width="105" height="40" as="geometry" />
        </mxCell>
        <mxCell id="vkENzP75K5TKaXmKiikp-4" value="" style="rounded=0;whiteSpace=wrap;html=1;" vertex="1" parent="vkENzP75K5TKaXmKiikp-3">
          <mxGeometry width="105" height="40" as="geometry" />
        </mxCell>
        <mxCell id="vkENzP75K5TKaXmKiikp-5" value=":Устройство" style="text;html=1;align=center;verticalAlign=middle;resizable=0;points=[];autosize=1;strokeColor=none;fillColor=none;" vertex="1" parent="vkENzP75K5TKaXmKiikp-3">
          <mxGeometry x="7.5" y="5" width="90" height="30" as="geometry" />
        </mxCell>
        <mxCell id="vkENzP75K5TKaXmKiikp-6" value="" style="group" vertex="1" connectable="0" parent="1">
          <mxGeometry x="1406" y="110" width="105" height="40" as="geometry" />
        </mxCell>
        <mxCell id="vkENzP75K5TKaXmKiikp-7" value="" style="rounded=0;whiteSpace=wrap;html=1;" vertex="1" parent="vkENzP75K5TKaXmKiikp-6">
          <mxGeometry width="105" height="40" as="geometry" />
        </mxCell>
        <mxCell id="vkENzP75K5TKaXmKiikp-8" value=":Сервер" style="text;html=1;align=center;verticalAlign=middle;resizable=0;points=[];autosize=1;strokeColor=none;fillColor=none;" vertex="1" parent="vkENzP75K5TKaXmKiikp-6">
          <mxGeometry x="17.5" y="5" width="70" height="30" as="geometry" />
        </mxCell>
        <mxCell id="vkENzP75K5TKaXmKiikp-9" value="" style="endArrow=none;dashed=1;html=1;rounded=0;entryX=0.5;entryY=1;entryDx=0;entryDy=0;exitX=0.5;exitY=0;exitDx=0;exitDy=0;" edge="1" target="vkENzP75K5TKaXmKiikp-4" parent="1">
          <mxGeometry width="50" height="50" relative="1" as="geometry">
            <mxPoint x="1218.5" y="190" as="sourcePoint" />
            <mxPoint x="1333.5" y="190" as="targetPoint" />
          </mxGeometry>
        </mxCell>
        <mxCell id="vkENzP75K5TKaXmKiikp-10" value="" style="endArrow=none;dashed=1;html=1;rounded=0;entryX=0.5;entryY=1;entryDx=0;entryDy=0;exitX=0.5;exitY=0;exitDx=0;exitDy=0;" edge="1" target="vkENzP75K5TKaXmKiikp-7" parent="1">
          <mxGeometry width="50" height="50" relative="1" as="geometry">
            <mxPoint x="1458.5" y="190" as="sourcePoint" />
            <mxPoint x="1228.5" y="160" as="targetPoint" />
          </mxGeometry>
        </mxCell>
        <mxCell id="vkENzP75K5TKaXmKiikp-11" value="" style="group" vertex="1" connectable="0" parent="1">
          <mxGeometry x="1023.5" y="200" width="140" height="30" as="geometry" />
        </mxCell>
        <mxCell id="vkENzP75K5TKaXmKiikp-13" value="Открыть приложение" style="text;html=1;align=center;verticalAlign=middle;resizable=0;points=[];autosize=1;strokeColor=none;fillColor=none;" vertex="1" parent="vkENzP75K5TKaXmKiikp-11">
          <mxGeometry width="140" height="30" as="geometry" />
        </mxCell>
        <mxCell id="vkENzP75K5TKaXmKiikp-14" value="" style="group" vertex="1" connectable="0" parent="1">
          <mxGeometry x="1022.5" y="240" width="150" height="40" as="geometry" />
        </mxCell>
        <mxCell id="vkENzP75K5TKaXmKiikp-16" value="Отобразить главную&lt;div&gt;страницу приложения&lt;/div&gt;" style="text;html=1;align=center;verticalAlign=middle;resizable=0;points=[];autosize=1;strokeColor=none;fillColor=none;" vertex="1" parent="vkENzP75K5TKaXmKiikp-14">
          <mxGeometry width="150" height="40" as="geometry" />
        </mxCell>
        <mxCell id="vkENzP75K5TKaXmKiikp-12" value="" style="endArrow=classic;html=1;rounded=0;exitX=0.95;exitY=0.059;exitDx=0;exitDy=0;exitPerimeter=0;entryX=-0.25;entryY=0.059;entryDx=0;entryDy=0;entryPerimeter=0;" edge="1" parent="1" source="lB9Hfs0PU4jBC6-gUC3o-69" target="lB9Hfs0PU4jBC6-gUC3o-66">
          <mxGeometry width="50" height="50" relative="1" as="geometry">
            <mxPoint x="1018.5" y="280" as="sourcePoint" />
            <mxPoint x="1068.5" y="230" as="targetPoint" />
          </mxGeometry>
        </mxCell>
        <mxCell id="vkENzP75K5TKaXmKiikp-15" value="" style="endArrow=classic;html=1;rounded=0;dashed=1;entryX=0.75;entryY=0.125;entryDx=0;entryDy=0;entryPerimeter=0;exitX=-0.25;exitY=0.124;exitDx=0;exitDy=0;exitPerimeter=0;" edge="1" parent="1" source="lB9Hfs0PU4jBC6-gUC3o-66" target="lB9Hfs0PU4jBC6-gUC3o-69">
          <mxGeometry width="50" height="50" relative="1" as="geometry">
            <mxPoint x="1243.5" y="250" as="sourcePoint" />
            <mxPoint x="993.5" y="280" as="targetPoint" />
          </mxGeometry>
        </mxCell>
      </root>
    </mxGraphModel>
  </diagram>
</mxfile>
